<svg width="34" height="26" viewBox="0 0 34 26" fill="none" xmlns="http://www.w3.org/2000/svg">
<path d="M14 7.02693H16V26H14V7.02693Z" fill="white"/>
<path d="M8 1L12.0417 0V26H8V1Z" fill="white"/>
<path d="M6 14L5.97865 2L0 6L2.00012 15L6 14Z" fill="white"/>
<path d="M14 5V0L14.0905 0.0384706C15.9504 0.829258 18.1508 0.815318 20 0V5H14Z" fill="white"/>
<path d="M18 7.02698H20V26H18V7.02698Z" fill="white"/>
<path d="M26.0001 1L22.0001 0V26L26.0001 26V1Z" fill="white"/>
<path d="M28.0001 14V2L34 6L32.0001 15L28.0001 14Z" fill="white"/>
</svg>
