<svg width="40" height="40" viewBox="0 0 40 40" fill="none" xmlns="http://www.w3.org/2000/svg">
<rect width="40" height="40" rx="20" fill="white"/>
<path fill-rule="evenodd" clip-rule="evenodd" d="M15.0644 12C13.372 12 12 13.372 12 15.0644V24.2576C12 25.9501 13.372 27.322 15.0644 27.322H24.2576C25.9501 27.322 27.322 25.95 27.322 24.2576V15.0644C27.322 13.372 25.95 12 24.2576 12H15.0644ZM23.4915 19.6611C23.4915 21.7766 21.7765 23.4916 19.661 23.4916C17.5455 23.4916 15.8305 21.7766 15.8305 19.6611C15.8305 17.5455 17.5455 15.8306 19.661 15.8306C21.7765 15.8306 23.4915 17.5455 23.4915 19.6611ZM19.6963 21.9947C20.9656 21.9947 21.9946 20.9657 21.9946 19.6964C21.9946 18.4271 20.9656 17.3981 19.6963 17.3981C18.427 17.3981 17.398 18.4271 17.398 19.6964C17.398 20.9657 18.427 21.9947 19.6963 21.9947ZM25.7898 14.6814C25.7898 15.3161 25.2753 15.8306 24.6407 15.8306C24.006 15.8306 23.4915 15.3161 23.4915 14.6814C23.4915 14.0468 24.006 13.5323 24.6407 13.5323C25.2753 13.5323 25.7898 14.0468 25.7898 14.6814Z" fill="#8AA5C6"/>
</svg>
