<svg width="505" height="505" viewBox="0 0 505 505" fill="none" xmlns="http://www.w3.org/2000/svg">
<g opacity="0.1">
<circle cx="252.5" cy="241.5" r="251.371" stroke="white" stroke-width="2.25806"/>
<circle cx="252.499" cy="241.5" r="230.403" stroke="white" stroke-width="0.752688"/>
<path d="M175.185 219.371L132.045 260.108C127.519 251.114 119.38 225.416 146.478 188.797C175.573 149.48 205.056 130.978 239.194 117.486C268.222 106.015 321.048 89.733 366.436 105.537C402.746 118.18 410.628 151.022 412.212 170.295C412.729 176.591 414.151 190.725 407.168 190.725C400.186 190.725 404.453 171.451 393.203 158.346C382.16 145.482 355.573 137.86 322.599 144.854C306.694 148.228 289.237 162.965 289.237 157.183L288.528 157.3C271.23 160.141 241.886 164.96 212.039 180.703C190.788 191.911 186.611 195.479 182.861 198.819L179.84 201.903L175.185 198.819C179.84 201.903 173.866 208.148 173.246 211.54C172.761 214.187 171.843 218.043 175.185 219.371ZM175.185 219.371C199.314 195.388 226.521 177.769 267.901 167.217C302.97 158.274 322.858 173.25 328.418 179.546C328.806 180.06 330.048 180.394 331.91 180.703C334.237 181.088 333.461 179.932 333.849 174.15C334.16 169.524 334.995 162.203 334.219 160.276L348.591 161.044C353.763 161.815 365.194 165.053 369.539 171.837C374.97 180.317 376.134 204.601 363.332 228.115C350.53 251.628 312.125 287.091 287.685 302.124C263.246 317.157 219.409 339.514 173.246 341.441C136.315 342.983 122.685 318.699 121.651 307.135C123.72 308.163 131.349 310.141 145.314 309.833C162.771 309.447 193.03 302.509 235.703 281.694C278.375 260.879 316.78 223.874 321.048 218.478C324.461 214.161 323.763 212.054 322.987 211.54C321.048 213.338 310.884 221.793 285.746 241.22C260.608 260.648 235.703 272.957 226.392 276.683C225.228 277.197 220.728 277.685 212.039 278.61C201.177 279.767 150.358 278.61 146.478 275.912C143.375 273.754 138.72 267.303 136.78 264.348V260.108C140.659 255.611 152.506 242.845 170.918 223.71C172.331 222.242 173.753 220.795 175.185 219.371ZM110.887 280.49C111.571 281.869 113.854 286.21 117.945 289.14C122.036 292.07 124.676 293.581 125.484 293.971" stroke="white" stroke-width="0.752688"/>
<path d="M197.941 207.56C170.666 227.572 146.991 252.587 138.563 262.978L133.2 255.666L148.907 239.887C155.802 232.96 169.593 218.874 169.593 217.951C169.593 216.796 169.21 215.257 169.593 209.869C169.899 205.559 173.296 199.35 175.339 196.784L180.702 199.478V193.705C182.618 192.294 191.275 186.624 210.582 175.233C234.716 160.993 260 155.99 277.238 153.296C291.029 151.141 300.606 152.398 303.671 153.296C313.631 154.451 322.059 162.148 326.656 167.92C330.333 172.539 329.72 177.798 328.954 179.851C326.656 178.311 321.292 174.925 318.228 173.693C314.397 172.154 301.755 168.305 277.238 170.614C252.721 172.923 232.035 182.545 197.941 207.56Z" fill="white"/>
<path d="M246.442 182.487C266.625 170.798 287.713 175.309 298.451 177.104C296.769 178.898 292.318 182.717 287.971 183.64C283.624 184.563 277.363 184.794 275.163 184.794L279.433 189.023L257.698 202.865L219.274 198.251C219.921 197.867 226.26 194.175 246.442 182.487Z" fill="white"/>
<path d="M253.428 205.172L214.616 201.712C213.84 202.096 211.822 203.326 209.959 205.172C208.096 207.018 201.938 211.837 199.091 214.015C207.371 214.784 225.328 216.245 230.917 215.938C236.506 215.63 248.254 208.632 253.428 205.172Z" fill="white"/>
<path d="M229.365 220.167L193.658 218.245L188.612 221.321C195.081 221.705 209.493 222.628 215.393 223.243C221.292 223.859 227.166 221.449 229.365 220.167Z" fill="white"/>
<path d="M207.63 226.319H183.567L173.087 235.547C175.934 236.701 183.567 238.546 191.329 236.701C199.091 234.855 205.431 229.011 207.63 226.319Z" fill="white"/>
<path d="M168.042 277.842C149.412 276.304 139.838 267.717 137.38 264.384C136.345 265.666 133.111 270.152 128.453 277.842C123.796 285.532 121.855 292.581 121.467 295.144C123.149 296.682 133.371 302.125 158.339 298.989C185.895 295.529 214.487 283.353 227.036 276.688L221.991 273.612C211.77 275.663 186.672 279.38 168.042 277.842Z" fill="white"/>
<path d="M326.395 157.11C323.29 154.342 319.668 153.137 318.245 152.88C332.217 150.189 365.208 142.115 385.002 171.336C400.091 193.612 375.099 240.161 351.623 270.536C324.908 305.103 288.359 334.86 232.082 363.969C188.224 386.654 143.59 394.344 125.736 397.42C107.883 400.496 104.002 399.343 103.225 396.651C102.604 394.498 107.624 392.935 109.823 392.422C116.163 391.397 136.011 389.34 162.22 380.887C195.598 370.121 230.141 353.588 260.415 336.285C290.688 318.983 328.724 280.149 341.92 263.615C355.116 247.082 365.596 225.935 368.701 210.17C371.806 194.406 366.372 182.871 359.386 175.181C353.797 169.029 338.945 165.441 332.217 164.415C331.57 163.134 329.5 159.878 326.395 157.11Z" fill="white"/>
<path d="M133.254 256.085L111.276 286.076C104.335 277.232 92.3702 253.778 124 201.486C153.304 153.039 200.344 122.664 245.072 101.132C289.799 79.5997 344.937 74.6012 350.335 76.1392C355.733 77.6772 351.106 79.2152 341.852 80.3687C332.598 81.5222 310.62 86.1362 292.112 91.9037C273.604 97.6711 235.432 110.36 206.128 132.276C176.824 154.193 160.244 172.649 140.965 201.486C125.542 224.556 129.398 247.498 133.254 256.085Z" fill="white"/>
</g>
</svg>
