<svg width="457" height="457" viewBox="0 0 457 457" fill="#fff" xmlns="http://www.w3.org/2000/svg">
<circle cx="228.5" cy="228.5" r="228.5" fill="#4639AE"/>
<circle cx="228.5" cy="228.5" r="208.479" fill="#4639AE" stroke="white" stroke-width="6.26027"/>
<path fill-rule="evenodd" clip-rule="evenodd" d="M374.571 141.586C367.393 123.522 356.601 111.885 338.912 104.519C304.379 90.1146 249.295 104.237 222.082 115.311C211.243 119.721 198.012 122.724 189.707 129.856H189.238C194.446 123.428 204.956 120.19 212.228 115.78C233.248 103.111 257.928 94.9473 284.016 87.1586C293.259 85.2818 302.455 83.405 311.699 81.5282C315.499 80.6368 320.566 81.5282 323.429 79.6514C323.757 79.5107 324.038 79.323 324.367 79.1822C324.226 78.3846 324.038 77.6339 323.898 76.8362C318.549 74.8187 307.663 76.977 301.845 78.2438C297.951 78.713 294.01 79.1822 290.115 79.6514C275.899 83.2174 261.541 86.2671 248.826 90.9122C190.129 112.448 146.494 144.542 114.635 192.728C106.236 205.397 101.31 217.737 96.8053 234.956C95.0693 241.525 94.4124 253.114 96.8053 259.824C98.4006 264.234 101.732 271.695 105.251 274.369C119.233 284.926 147.291 283.19 165.778 277.653C206.739 265.454 235.641 250.018 266.186 227.918C276.415 220.552 288.239 212.669 296.215 203.051H297.153C296.309 207.555 291.476 210.605 288.708 213.373C280.403 221.678 272.004 229.279 262.433 236.364C244.462 249.689 225.554 262.968 203.783 272.492C195.713 276.011 187.971 278.263 179.384 281.407C160.1 288.492 137.954 292.949 113.227 289.383C113.978 323.072 161.555 326.216 192.991 317.535C236.674 305.524 270.128 285.395 299.499 259.355C309.869 250.158 322.068 239.273 328.59 226.511H329.059C323.241 238.616 314.795 248.657 307.007 258.886C304.661 261.232 302.315 263.578 299.969 265.924C292.837 275.214 283.547 283.237 274.163 290.322C266.796 295.905 259.805 302.756 252.11 308.151C231.982 322.274 209.225 334.52 185.484 344.749C165.825 353.195 144.476 358.637 122.142 364.455C115.949 366.051 98.4945 366.285 96.3361 371.024H95.8669C96.3831 372.432 96.993 372.713 97.7437 373.839C105.955 374.778 115.62 372.76 123.08 371.024C141.52 366.661 158.505 364.221 174.223 357.887C188.581 352.115 201.671 347.658 215.044 341.465C223.583 337.523 232.122 331.752 239.911 326.919C274.116 305.759 307.945 278.826 329.997 245.748C342.525 226.933 368.331 184.424 348.296 157.069C341.446 147.732 327.511 144.87 311.229 144.87C304.567 144.87 299.124 145.949 293.4 146.747C301.001 153.269 302.643 150.172 306.068 162.23C306.725 164.576 307.898 169.409 306.068 171.614C305.599 171.943 305.88 171.802 305.13 172.084C304.661 171.755 304.942 171.896 304.191 171.614C304.191 154.911 285.142 146.982 268.063 147.216C272.943 143.697 281.811 143.697 288.239 142.055C313.763 135.486 349.563 136.753 362.372 153.785C365.75 158.289 368.237 164.107 369.879 170.207C371.381 175.837 370.489 178.23 373.164 182.406C375.65 182.171 375.885 181.515 377.386 180.529C380.342 168.002 378.466 151.345 374.571 141.586ZM187.83 130.794L188.299 129.856C188.299 129.856 188.346 130.137 187.83 130.794Z" fill="white"/>
<path fill-rule="evenodd" clip-rule="evenodd" d="M337.036 176.775C332.672 166.359 319.347 157.914 305.13 157.538C305.74 160.917 308.931 168.189 306.068 171.614C305.036 172.224 304.802 171.52 303.722 172.553C300.532 171.802 298.937 169.081 296.215 167.861C291.946 165.984 286.456 165.186 281.67 164.107C268.157 161.104 246.668 164.576 236.627 167.861C211.384 176.072 191.912 190.476 172.816 204.927C166.716 209.526 161.508 215.766 155.455 220.411C146.353 227.402 133.215 239.273 127.773 249.501C125.474 248.891 123.738 246.076 123.081 243.871C122.752 243.871 122.471 243.871 122.142 243.871C115.574 252.645 109.005 261.372 102.436 270.146C102.436 270.475 102.436 270.756 102.436 271.084C105.017 273.618 108.113 275.213 110.882 277.653C115.01 277.184 114.213 273.243 115.574 270.146C118.201 264.093 122.048 255.085 126.834 250.909C126.834 250.768 126.834 250.58 126.834 250.44C131.667 252.363 136.218 257.102 141.849 259.354C154.611 264.516 176.71 263.953 191.115 260.762C195.384 259.824 200.499 260.434 203.783 258.416C206.833 258.463 209.179 260.293 209.413 261.7C217.859 260.715 230.011 251.707 236.627 247.625C249.295 239.789 261.072 232.329 272.755 223.695C277.4 220.27 281.342 215.437 285.893 211.965C289.412 209.291 293.4 206.429 296.215 203.051C296.544 203.051 296.825 203.051 297.154 203.051C296.309 207.555 291.476 210.605 288.708 213.373C280.403 221.678 272.005 229.279 262.433 236.364C234.609 257.008 210.305 271.131 173.285 283.284C155.221 289.196 135.608 292.621 113.228 289.383C113.931 321.993 159.631 326.638 191.115 318.004C230.95 307.119 259.618 290.791 288.239 269.208C296.966 262.639 305.505 255.319 312.168 246.686C316.766 240.727 322.866 235.707 327.182 229.326C334.69 218.206 344.637 194.933 337.036 176.775ZM160.617 223.226C161.367 220.739 167.279 217.549 169.531 214.781C172.018 214.734 176.335 214.264 177.977 215.25C182.528 215.25 187.033 215.25 191.584 215.25C188.909 222.006 169.531 229.373 160.617 223.226ZM211.29 209.619C209.554 210.417 207.865 211.168 206.129 211.965C202.704 212.81 184.17 211.684 182.2 210.558C179.854 210.558 177.508 210.558 175.162 210.558C176.006 208.869 177.649 208.071 178.915 206.804C189.707 207.602 200.499 208.353 211.29 209.15C211.29 209.291 211.29 209.479 211.29 209.619ZM233.812 195.074C219.36 202.3 216.311 207.649 194.399 203.52C191.349 202.957 186.845 204.364 184.546 203.051C183.795 202.769 184.03 202.91 183.607 202.581C186.423 201.502 195.9 194.136 197.683 191.79C208.334 192.728 218.938 193.667 229.589 194.605C230.997 194.605 232.404 194.605 233.812 194.605C233.812 194.746 233.812 194.933 233.812 195.074ZM274.632 169.268C271.77 171.239 262.48 180.013 256.333 176.306C255.254 176.306 254.128 176.306 253.049 176.306C254.081 177.808 255.536 178.746 257.272 179.591C256.052 182.312 252.251 183.203 249.764 184.752C240.568 190.523 237.284 193.62 222.551 190.851C217.718 189.96 210.915 191.649 207.067 189.444C205.519 189.444 203.924 189.444 202.375 189.444C204.158 185.925 209.366 184.47 212.698 182.406C220.205 177.761 228.744 173.679 238.035 170.676C243.806 169.409 249.624 168.189 255.395 166.922C262.949 166.969 268.673 168.048 274.632 168.799C274.632 168.94 274.632 169.127 274.632 169.268Z" fill="#00C38D"/>
<path fill-rule="evenodd" clip-rule="evenodd" d="M372.695 136.892C360.777 109.069 334.689 98.4181 294.338 98.8873C288.849 99.3565 283.406 99.8257 277.916 100.295C265.858 102.922 253.893 104.189 242.726 107.802C196.51 122.723 164.652 141.397 139.033 176.774C131.62 187.05 114.025 211.448 118.389 232.14C119.28 236.41 121.063 240.116 122.142 243.87C122.471 243.87 122.752 243.87 123.081 243.87C131.808 229.606 145.978 219.894 157.332 208.211C157.848 206.615 155.831 205.02 156.394 202.111C157.191 197.748 158.974 192.68 161.555 189.912C161.555 189.771 161.555 189.584 161.555 189.443C163.338 190.053 164.792 191.273 165.778 192.727C167.655 191.32 166.529 188.833 167.655 186.628C170.001 182.029 182.153 174.522 186.892 171.613C202.235 162.276 221.096 156.693 240.38 151.438C254.175 147.684 269.095 147.074 282.139 143.461C302.127 137.925 335.44 134.828 352.519 145.338C359.135 149.42 364.859 156.13 368.003 163.637C370.442 169.455 370.067 177.572 373.164 182.405C375.651 182.17 375.885 181.513 377.387 180.528C380.999 165.279 377.387 147.778 372.695 136.892Z" fill="#FB3D4E"/>
</svg>

