<svg width="68" height="105" viewBox="0 0 68 105" fill="none" xmlns="http://www.w3.org/2000/svg">
<path d="M21.3407 3.67952C18.9796 1.30686 15.8402 0 12.5013 0C9.16172 0 6.02295 1.30686 3.66186 3.67952C-0.707643 8.06978 -1.25065 16.3302 2.48588 21.3349L12.5013 33L22.5017 21.3552C26.2532 16.3302 25.7102 8.06978 21.3407 3.67952ZM12.6166 17.0318C10.1011 17.0318 8.05353 14.9742 8.05353 12.4463C8.05353 9.91839 10.1011 7.86082 12.6166 7.86082C15.1322 7.86082 17.1798 9.91839 17.1798 12.4463C17.1798 14.9742 15.1322 17.0318 12.6166 17.0318Z" fill="#00C38D"/>
<path d="M64.3407 75.6795C61.9796 73.3069 58.8402 72 55.5013 72C52.1617 72 49.0229 73.3069 46.6619 75.6795C42.2924 80.0698 41.7493 88.3302 45.4859 93.3349L55.5013 105L65.5017 93.3552C69.2532 88.3302 68.7102 80.0698 64.3407 75.6795ZM55.6166 89.0318C53.1011 89.0318 51.0535 86.9742 51.0535 84.4463C51.0535 81.9184 53.1011 79.8608 55.6166 79.8608C58.1322 79.8608 60.1798 81.9184 60.1798 84.4463C60.1798 86.9742 58.1322 89.0318 55.6166 89.0318Z" fill="#00C38D"/>
</svg>
