<svg width="40" height="40" viewBox="0 0 40 40" fill="none" xmlns="http://www.w3.org/2000/svg">
<rect width="40" height="40" rx="20" fill="white"/>
<path d="M26.4344 16.2457C26.4447 16.3882 26.4447 16.5307 26.4447 16.6731C26.4447 21.0177 23.127 26.0237 17.0633 26.0237C15.1952 26.0237 13.4598 25.4844 12 24.5484C12.2654 24.5789 12.5206 24.5891 12.7962 24.5891C14.3377 24.5891 15.7566 24.0702 16.8897 23.185C15.4402 23.1544 14.2254 22.2082 13.8068 20.9058C14.011 20.9363 14.2152 20.9567 14.4296 20.9567C14.7256 20.9567 15.0217 20.916 15.2973 20.8448C13.7864 20.5395 12.6533 19.2168 12.6533 17.6193V17.5787C13.0922 17.8229 13.6027 17.9755 14.1437 17.9958C13.2556 17.4057 12.6737 16.3984 12.6737 15.2588C12.6737 14.6483 12.837 14.0887 13.1229 13.6003C14.746 15.5946 17.1858 16.8969 19.9216 17.0394C19.8705 16.7952 19.8399 16.5408 19.8399 16.2865C19.8399 14.4753 21.3099 13 23.1371 13C24.0865 13 24.944 13.3968 25.5463 14.0378C26.2915 13.8954 27.006 13.6207 27.639 13.2442C27.394 14.0073 26.8734 14.6483 26.1894 15.0553C26.853 14.9841 27.4961 14.8009 28.0881 14.5466C27.639 15.1977 27.0776 15.7777 26.4344 16.2457Z" fill="#8AA5C6"/>
</svg>
