<svg width="12" height="14" viewBox="0 0 12 14" fill="none" xmlns="http://www.w3.org/2000/svg">
<path fill-rule="evenodd" clip-rule="evenodd" d="M6 2C4.89543 2 4 2.89543 4 4C4 5.10457 4.89543 6 6 6C7.10457 6 8 5.10457 8 4C8 2.89543 7.10457 2 6 2ZM8.92286 6.73075C9.59102 6.01588 10 5.0557 10 4C10 1.79086 8.20914 0 6 0C3.79086 0 2 1.79086 2 4C2 5.04067 2.39741 5.98852 3.04876 6.70007C2.40413 7.04569 1.86071 7.50229 1.41965 8.03095C0.440538 9.2045 0 10.6886 0 12V13.5H12V12C12 10.13 10.9624 7.86926 8.92286 6.73075ZM6 8C4.54656 8 3.57784 8.56609 2.95535 9.3122C2.42707 9.94539 2.12386 10.7403 2.03095 11.5H9.9652C9.73423 9.81675 8.35879 8 6 8Z" fill="white"/>
</svg>
