<svg width="40" height="40" viewBox="0 0 40 40" fill="none" xmlns="http://www.w3.org/2000/svg">
<rect width="40" height="40" rx="20" fill="white"/>
<path fill-rule="evenodd" clip-rule="evenodd" d="M24.4361 20.683C24.7807 21.0695 25.1495 21.4313 25.483 21.8285C25.7255 22.1174 25.95 22.431 26.1421 22.7609C26.385 23.1783 26.2349 23.5714 25.7809 23.6415C25.4954 23.6853 24.1003 23.6418 24.0283 23.6415C23.6532 23.6397 23.3244 23.498 23.0596 23.2209C22.7652 22.9123 22.4975 22.5739 22.2148 22.252C22.1296 22.155 22.0387 22.062 21.9407 21.9809C21.7095 21.789 21.4825 21.8316 21.3743 22.1271C21.2821 22.3809 21.2022 23.0475 21.1985 23.1042C21.1791 23.402 21.005 23.5917 20.6986 23.61C19.8137 23.6623 18.9564 23.5549 18.1577 23.0894C17.4807 22.695 16.94 22.1374 16.4718 21.4869C15.728 20.454 15.1403 19.3186 14.604 18.1497C14.5766 18.0899 14.0332 16.8321 14.0186 16.7727C13.97 16.5738 14.0153 16.3838 14.1698 16.3183C14.2662 16.2775 16.0575 16.3183 16.0873 16.32C16.3731 16.3368 16.568 16.4679 16.6884 16.7908C17.0306 17.7102 17.4643 18.5771 18.0356 19.3552C18.1113 19.4587 18.2068 19.5508 18.3074 19.6258C18.4543 19.7355 18.5929 19.697 18.6527 19.5141C18.7159 19.3222 18.7739 18.9333 18.7774 18.7317C18.7867 18.2051 18.7759 17.86 18.75 17.3341C18.733 16.9972 18.623 16.7015 18.1676 16.6123C18.027 16.5846 18.0138 16.4586 18.1043 16.333C18.2923 16.0713 18.5544 16.0297 18.8386 16.0132C19.2991 15.9861 19.7614 16.0082 20.2225 16.0132C20.4103 16.0151 20.5993 16.0316 20.7842 16.0755C21.0256 16.1326 21.1548 16.3168 21.1946 16.573C21.2152 16.7053 21.2258 16.8411 21.2229 16.9749C21.2109 17.5496 21.1854 18.1242 21.1794 18.6986C21.1768 18.9241 21.192 19.1551 21.2363 19.3748C21.2983 19.6809 21.4898 19.7576 21.6856 19.5366C21.9344 19.2556 22.1538 18.9397 22.3595 18.6187C22.7334 18.035 23.0128 17.3942 23.2531 16.7336C23.3775 16.3927 23.4728 16.3186 23.8098 16.3178C24.4433 16.3162 25.0769 16.3157 25.7104 16.3178C25.8227 16.3183 25.9402 16.33 26.0463 16.3666C26.2183 16.4264 26.2866 16.579 26.2464 16.7729C26.1524 17.2269 25.9267 17.6129 25.6851 17.9839C25.2975 18.5792 24.8913 19.1603 24.4945 19.7486C24.444 19.8237 24.3993 19.9036 24.3578 19.9848C24.2094 20.2764 24.2197 20.44 24.4361 20.683Z" fill="#8AA5C6"/>
</svg>
