<svg width="40" height="40" viewBox="0 0 40 40" fill="none" xmlns="http://www.w3.org/2000/svg">
<rect width="40" height="40" rx="20" fill="white"/>
<path fill-rule="evenodd" clip-rule="evenodd" d="M15.0644 15C13.372 15 12 16.372 12 18.0644V22.661C12 24.3534 13.372 25.7254 15.0644 25.7254H24.2576C25.9501 25.7254 27.322 24.3534 27.322 22.661V18.0644C27.322 16.372 25.95 15 24.2576 15H15.0644ZM17.6092 22.6439L21.901 20.5837C21.9412 20.5644 21.9567 20.5571 21.959 20.5468C21.9642 20.5241 21.9047 20.4868 21.9047 20.2725L17.6129 18.0834C17.4983 18.0249 17.3627 18.1088 17.3627 18.2381V22.4874C17.3627 22.6149 17.4948 22.6988 17.6092 22.6439Z" fill="#8AA5C6"/>
</svg>
